%FSLAX34Y34*%
%MOMM*%
%LNSILK_TOP*%
G71*
G01*
%ADD10C, 1.90*%
%ADD11C, 1.90*%
%ADD12C, 1.80*%
%ADD13C, 0.50*%
%ADD14C, 1.40*%
%ADD15C, 0.40*%
%ADD16C, 1.80*%
%ADD17C, 1.64*%
%ADD18C, 2.20*%
%ADD19C, 1.40*%
%LPD*%
G54D10*
X549275Y480988D02*
X549275Y461988D01*
G54D10*
X574675Y480988D02*
X574675Y461988D01*
G54D10*
X600075Y480988D02*
X600075Y461988D01*
G54D10*
X625475Y480988D02*
X625475Y461988D01*
G54D10*
X650875Y480988D02*
X650875Y461988D01*
G54D10*
X676275Y480988D02*
X676275Y461988D01*
G54D10*
X701675Y480988D02*
X701675Y461988D01*
G54D10*
X727075Y480988D02*
X727075Y461988D01*
G54D10*
X752475Y480988D02*
X752475Y461988D01*
G54D10*
X777875Y480988D02*
X777875Y461988D01*
G54D10*
X803275Y480988D02*
X803275Y461988D01*
G54D10*
X828675Y480988D02*
X828675Y461988D01*
G54D10*
X854075Y480988D02*
X854075Y461988D01*
G54D10*
X879475Y480988D02*
X879475Y461988D01*
G54D10*
X904875Y480988D02*
X904875Y461988D01*
G54D10*
X549275Y633388D02*
X549275Y614388D01*
G54D10*
X574675Y633388D02*
X574675Y614388D01*
G54D10*
X600075Y633388D02*
X600075Y614388D01*
G54D10*
X625475Y633388D02*
X625475Y614388D01*
G54D10*
X650875Y633388D02*
X650875Y614388D01*
G54D10*
X676275Y633388D02*
X676275Y614388D01*
G54D10*
X701675Y633388D02*
X701675Y614388D01*
G54D10*
X727075Y633388D02*
X727075Y614388D01*
G54D10*
X752475Y633388D02*
X752475Y614388D01*
G54D10*
X777875Y633388D02*
X777875Y614388D01*
G54D10*
X803275Y633388D02*
X803275Y614388D01*
G54D10*
X828675Y633388D02*
X828675Y614388D01*
G54D10*
X854075Y633388D02*
X854075Y614388D01*
G54D10*
X879475Y633388D02*
X879475Y614388D01*
G54D10*
X904875Y633388D02*
X904875Y614388D01*
X930275Y573088D02*
G54D11*
D03*
X904875Y573087D02*
G54D11*
D03*
X930275Y547688D02*
G54D11*
D03*
X904875Y547688D02*
G54D11*
D03*
X930275Y522288D02*
G54D11*
D03*
X904875Y522288D02*
G54D11*
D03*
X714375Y820738D02*
G54D12*
D03*
X739775Y820738D02*
G54D12*
D03*
X765175Y820738D02*
G54D12*
D03*
X790575Y820738D02*
G54D12*
D03*
X815975Y820738D02*
G54D12*
D03*
X841375Y820738D02*
G54D12*
D03*
X714375Y693738D02*
G54D12*
D03*
X739775Y693738D02*
G54D12*
D03*
X765175Y693738D02*
G54D12*
D03*
X790575Y693738D02*
G54D12*
D03*
X815975Y693738D02*
G54D12*
D03*
X841375Y693738D02*
G54D12*
D03*
G54D13*
X714375Y700138D02*
X714375Y693738D01*
X701675Y681038D01*
G36*
X965400Y645713D02*
X965400Y631713D01*
X951400Y631713D01*
X951400Y645713D01*
X965400Y645713D01*
G37*
X958400Y613313D02*
G54D14*
D03*
X958400Y587913D02*
G54D14*
D03*
X958400Y562513D02*
G54D14*
D03*
X1034600Y562513D02*
G54D14*
D03*
X1034600Y587913D02*
G54D14*
D03*
X1034600Y613313D02*
G54D14*
D03*
X1034600Y638713D02*
G54D14*
D03*
G54D15*
X958400Y638713D02*
X958400Y640213D01*
X947738Y650875D01*
X836612Y650875D01*
X828675Y642938D01*
X828675Y623888D01*
G54D15*
X958400Y613313D02*
X949863Y613313D01*
X935038Y598488D01*
X584200Y598488D01*
X574675Y608012D01*
G54D15*
X958400Y587913D02*
X948787Y587913D01*
X946150Y590550D01*
X563512Y590550D01*
X542875Y611188D01*
X542875Y617488D01*
X549275Y623888D01*
X983412Y530759D02*
G54D16*
D03*
X958012Y530759D02*
G54D16*
D03*
G54D15*
X958400Y562513D02*
X958400Y531147D01*
X958012Y530759D01*
G54D15*
X983412Y530759D02*
X983196Y530759D01*
X962025Y509588D01*
X962025Y498475D01*
X957262Y493712D01*
X838200Y493712D01*
X828675Y484188D01*
X828675Y471488D01*
G54D15*
X983412Y530759D02*
X983412Y537501D01*
X971100Y549813D01*
X971100Y648837D01*
X976312Y654050D01*
X1019263Y654050D01*
X1034600Y638713D01*
G54D15*
X1034600Y613313D02*
X1034600Y587913D01*
X1021664Y531660D02*
G54D16*
D03*
X1021664Y506260D02*
G54D16*
D03*
G54D15*
X1021664Y531660D02*
X984313Y531660D01*
X983412Y530759D01*
G54D15*
X1034600Y562513D02*
X1034600Y557663D01*
X1041400Y550862D01*
X1041400Y490538D01*
X1036638Y485775D01*
G54D15*
X1028700Y582612D02*
X1029299Y582612D01*
X1034600Y587913D01*
X1034000Y587913D01*
X1028700Y582612D01*
X1028700Y573088D01*
X1019175Y563562D01*
X1019175Y558800D01*
X1035050Y542925D01*
X1035050Y519646D01*
X1021664Y506260D01*
X752300Y920750D02*
G54D17*
D03*
X787400Y920750D02*
G54D17*
D03*
G54D15*
X958400Y638713D02*
X958400Y647250D01*
X974725Y663575D01*
X1004888Y663575D01*
X1006475Y661988D01*
X1006475Y844550D01*
X1004888Y846138D01*
X1004888Y850900D01*
X984250Y871538D01*
X873125Y871538D01*
X869950Y874712D01*
X869950Y879475D01*
X836612Y912812D01*
X809625Y912812D01*
X798512Y901700D01*
X771350Y901700D01*
X752300Y920750D01*
X1031875Y479425D02*
G54D18*
D03*
X982275Y479425D02*
G54D18*
D03*
G54D15*
X982275Y479425D02*
X982275Y474275D01*
X955675Y447675D01*
X890588Y447675D01*
X879475Y458788D01*
X879475Y471488D01*
X823913Y574675D02*
G54D16*
D03*
X823913Y523875D02*
G54D16*
D03*
G54D15*
X823913Y523875D02*
X823913Y476249D01*
X828675Y471488D01*
G54D19*
X646729Y922232D02*
X632729Y922232D01*
G54D19*
X576879Y922232D02*
X562879Y922232D01*
G54D15*
X639729Y922232D02*
X750818Y922232D01*
X752300Y920750D01*
G54D15*
X854075Y471488D02*
X854075Y457200D01*
X841375Y444500D01*
X530225Y444500D01*
X512762Y461962D01*
X512762Y865116D01*
X569879Y922232D01*
G54D15*
X739775Y820738D02*
X739775Y847725D01*
X752475Y860425D01*
X860425Y860425D01*
X873125Y847725D01*
X873125Y693738D01*
X847725Y668338D01*
X835025Y668338D01*
X803275Y636588D01*
X803275Y623888D01*
G54D15*
X777875Y636588D02*
X779462Y636588D01*
X819150Y676275D01*
X844550Y676275D01*
X863600Y695325D01*
X863600Y820738D01*
X860425Y823912D01*
X844550Y823912D01*
X841375Y820738D01*
G54D15*
X790575Y693738D02*
X790575Y661988D01*
X771475Y661988D01*
X746075Y636588D01*
X746075Y630288D01*
X752475Y623888D01*
G54D15*
X739775Y693738D02*
X739775Y655688D01*
X720675Y636588D01*
X720675Y630288D01*
X727075Y623888D01*
G54D15*
X714375Y693738D02*
X712788Y693738D01*
X696912Y677862D01*
X696912Y628650D01*
X701675Y623888D01*
G54D15*
X765175Y820738D02*
X765175Y806450D01*
X747712Y788988D01*
X747712Y720725D01*
X735012Y708025D01*
X708025Y708025D01*
X681038Y681038D01*
X681038Y628650D01*
X676275Y623888D01*
M02*
