%FSLAX34Y34*%
%MOMM*%
%LNCOPPER_TOP*%
G71*
G01*
%ADD10C, 0.40*%
%ADD11C, 1.40*%
%ADD12C, 1.80*%
%ADD13C, 1.80*%
%LPD*%
G54D10*
X1034600Y613313D02*
X1034600Y619575D01*
X1016000Y638175D01*
X1016000Y854075D01*
X987425Y882650D01*
X882650Y882650D01*
X841375Y923925D01*
X1034600Y613313D02*
G54D11*
D03*
X787400Y920750D02*
G54D11*
D03*
G54D10*
X841375Y923925D02*
X790575Y923925D01*
X787400Y920750D01*
X958400Y613313D02*
G54D11*
D03*
G54D10*
X958400Y613313D02*
X949863Y613313D01*
X935038Y598488D01*
X846138Y598488D01*
X822325Y574675D01*
X823913Y574675D02*
G54D11*
D03*
X815975Y693738D02*
G54D11*
D03*
G54D10*
X815975Y693738D02*
X815975Y679450D01*
X790575Y654050D01*
X661988Y654050D01*
X657225Y649288D01*
X657225Y630238D01*
X650875Y623888D01*
G54D12*
X650875Y632888D02*
X650875Y614888D01*
X790575Y820738D02*
G54D13*
D03*
X815975Y820738D02*
G54D13*
D03*
G54D12*
X625475Y480488D02*
X625475Y462488D01*
G54D10*
X619075Y484188D02*
X619075Y477888D01*
X625475Y471488D01*
X625475Y492125D01*
X609600Y508000D01*
X533400Y508000D01*
X514350Y527050D01*
X514350Y781050D01*
X552450Y819150D01*
X712788Y819150D01*
X714375Y820738D01*
X714375Y820738D02*
G54D13*
D03*
G54D12*
X650875Y480488D02*
X650875Y462488D01*
G54D10*
X650875Y484188D02*
X650875Y471488D01*
X650875Y492125D01*
X622300Y520700D01*
X539750Y520700D01*
X527050Y533400D01*
X527050Y774700D01*
X558800Y806450D01*
X776288Y806450D01*
X790575Y820738D01*
G54D10*
X815975Y820738D02*
X815975Y809625D01*
X825500Y800100D01*
X977900Y800100D01*
X996950Y781050D01*
X996950Y546100D01*
X1003300Y539750D01*
X1003300Y450850D01*
X996950Y444500D01*
X673100Y444500D01*
X673100Y468312D01*
X676275Y471488D01*
G54D12*
X676275Y480488D02*
X676275Y462488D01*
X841375Y693738D02*
G54D13*
D03*
G54D10*
X841375Y693738D02*
X928775Y693738D01*
X971100Y651413D01*
X971100Y507550D01*
X958850Y495300D01*
X704850Y495300D01*
X704850Y476250D01*
G54D12*
X701675Y480488D02*
X701675Y462488D01*
M02*
