%FSLAX34Y34*%
%MOMM*%
%LNSOLDERMASK_BOTTOM*%
G71*
G01*
%ADD10C, 2.50*%
%ADD11C, 2.50*%
%ADD12C, 2.40*%
%ADD13C, 2.00*%
%ADD14C, 2.40*%
%ADD15C, 2.24*%
%ADD16C, 2.80*%
%ADD17C, 2.00*%
%LPD*%
G54D10*
X549275Y480988D02*
X549275Y461988D01*
G54D10*
X574675Y480988D02*
X574675Y461988D01*
G54D10*
X600075Y480988D02*
X600075Y461988D01*
G54D10*
X625475Y480988D02*
X625475Y461988D01*
G54D10*
X650875Y480988D02*
X650875Y461988D01*
G54D10*
X676275Y480988D02*
X676275Y461988D01*
G54D10*
X701675Y480988D02*
X701675Y461988D01*
G54D10*
X727075Y480988D02*
X727075Y461988D01*
G54D10*
X752475Y480988D02*
X752475Y461988D01*
G54D10*
X777875Y480988D02*
X777875Y461988D01*
G54D10*
X803275Y480988D02*
X803275Y461988D01*
G54D10*
X828675Y480988D02*
X828675Y461988D01*
G54D10*
X854075Y480988D02*
X854075Y461988D01*
G54D10*
X879475Y480988D02*
X879475Y461988D01*
G54D10*
X904875Y480988D02*
X904875Y461988D01*
G54D10*
X549275Y633388D02*
X549275Y614388D01*
G54D10*
X574675Y633388D02*
X574675Y614388D01*
G54D10*
X600075Y633388D02*
X600075Y614388D01*
G54D10*
X625475Y633388D02*
X625475Y614388D01*
G54D10*
X650875Y633388D02*
X650875Y614388D01*
G54D10*
X676275Y633388D02*
X676275Y614388D01*
G54D10*
X701675Y633388D02*
X701675Y614388D01*
G54D10*
X727075Y633388D02*
X727075Y614388D01*
G54D10*
X752475Y633388D02*
X752475Y614388D01*
G54D10*
X777875Y633388D02*
X777875Y614388D01*
G54D10*
X803275Y633388D02*
X803275Y614388D01*
G54D10*
X828675Y633388D02*
X828675Y614388D01*
G54D10*
X854075Y633388D02*
X854075Y614388D01*
G54D10*
X879475Y633388D02*
X879475Y614388D01*
G54D10*
X904875Y633388D02*
X904875Y614388D01*
X930275Y573088D02*
G54D11*
D03*
X904875Y573087D02*
G54D11*
D03*
X930275Y547688D02*
G54D11*
D03*
X904875Y547688D02*
G54D11*
D03*
X930275Y522288D02*
G54D11*
D03*
X904875Y522288D02*
G54D11*
D03*
X714375Y820738D02*
G54D12*
D03*
X739775Y820738D02*
G54D12*
D03*
X765175Y820738D02*
G54D12*
D03*
X790575Y820738D02*
G54D12*
D03*
X815975Y820738D02*
G54D12*
D03*
X841375Y820738D02*
G54D12*
D03*
X714375Y693738D02*
G54D12*
D03*
X739775Y693738D02*
G54D12*
D03*
X765175Y693738D02*
G54D12*
D03*
X790575Y693738D02*
G54D12*
D03*
X815975Y693738D02*
G54D12*
D03*
X841375Y693738D02*
G54D12*
D03*
G36*
X968400Y648713D02*
X968400Y628713D01*
X948400Y628713D01*
X948400Y648713D01*
X968400Y648713D01*
G37*
X958400Y613313D02*
G54D13*
D03*
X958400Y587913D02*
G54D13*
D03*
X958400Y562513D02*
G54D13*
D03*
X1034600Y562513D02*
G54D13*
D03*
X1034600Y587913D02*
G54D13*
D03*
X1034600Y613313D02*
G54D13*
D03*
X1034600Y638713D02*
G54D13*
D03*
X983412Y530759D02*
G54D14*
D03*
X958012Y530759D02*
G54D14*
D03*
X1021664Y531660D02*
G54D14*
D03*
X1021664Y506260D02*
G54D14*
D03*
X752300Y920750D02*
G54D15*
D03*
X787400Y920750D02*
G54D15*
D03*
X1031875Y479425D02*
G54D16*
D03*
X982275Y479425D02*
G54D16*
D03*
X823913Y574675D02*
G54D14*
D03*
X823913Y523875D02*
G54D14*
D03*
G54D17*
X646729Y922232D02*
X632729Y922232D01*
G54D17*
X576879Y922232D02*
X562879Y922232D01*
M02*
