%FSLAX34Y34*%
%MOMM*%
%LNCOPPER_BOTTOM*%
G71*
G01*
%ADD10C, 0.11*%
%ADD11C, 0.06*%
%ADD12C, 0.20*%
%ADD13C, 0.10*%
%ADD14C, 0.00*%
%ADD15C, 0.03*%
%ADD16C, 0.03*%
%ADD17C, 0.30*%
%ADD18C, 0.17*%
%ADD19C, 0.15*%
%ADD20C, 0.80*%
%ADD21C, 0.32*%
%ADD22C, 0.16*%
%ADD23C, 0.97*%
%LPD*%
G54D10*
X859768Y543872D02*
X859768Y552761D01*
X863102Y547205D01*
X866435Y552761D01*
X866435Y543872D01*
G54D10*
X874213Y551094D02*
X874213Y545538D01*
X873546Y544427D01*
X872213Y543872D01*
X870880Y543872D01*
X869546Y544427D01*
X868880Y545538D01*
X868880Y551094D01*
X869546Y552205D01*
X870880Y552761D01*
X872213Y552761D01*
X873546Y552205D01*
X874213Y551094D01*
G54D10*
X876656Y545538D02*
X877323Y544427D01*
X878656Y543872D01*
X879990Y543872D01*
X881323Y544427D01*
X881990Y545538D01*
X881990Y546650D01*
X881323Y547761D01*
X879990Y548316D01*
X878656Y548316D01*
X877323Y548872D01*
X876656Y549983D01*
X876656Y551094D01*
X877323Y552205D01*
X878656Y552761D01*
X879990Y552761D01*
X881323Y552205D01*
X881990Y551094D01*
G54D10*
X884434Y543872D02*
X889767Y543872D01*
G54D10*
X887100Y543872D02*
X887100Y552761D01*
G54D10*
X884434Y552761D02*
X889767Y552761D01*
G54D10*
X871029Y498157D02*
X873696Y498157D01*
X873696Y495379D01*
X873029Y494268D01*
X871696Y493712D01*
X870362Y493712D01*
X869029Y494268D01*
X868362Y495379D01*
X868362Y500935D01*
X869029Y502046D01*
X870362Y502601D01*
X871696Y502601D01*
X873029Y502046D01*
X873696Y500935D01*
G54D10*
X876140Y493712D02*
X876140Y502601D01*
X881473Y493712D01*
X881473Y502601D01*
G54D10*
X883916Y493712D02*
X883916Y502601D01*
X887250Y502601D01*
X888583Y502046D01*
X889250Y500935D01*
X889250Y495379D01*
X888583Y494268D01*
X887250Y493712D01*
X883916Y493712D01*
G54D10*
X895714Y496251D02*
X899047Y487362D01*
X902381Y496251D01*
G54D10*
X904825Y487362D02*
X904825Y492362D01*
G54D10*
X904825Y494029D02*
X904825Y494029D01*
G54D10*
X907269Y487362D02*
X907269Y492362D01*
G54D10*
X907269Y491251D02*
X907936Y492029D01*
X909269Y492362D01*
X910602Y492029D01*
X911269Y491251D01*
X911269Y487362D01*
G54D10*
X854994Y521809D02*
X853882Y519809D01*
X852771Y519142D01*
X850549Y519142D01*
G54D10*
X850549Y524476D02*
X859438Y524476D01*
X859438Y521142D01*
X858882Y519809D01*
X857771Y519142D01*
X856660Y519142D01*
X855549Y519809D01*
X854994Y521142D01*
X854994Y524476D01*
G54D10*
X851104Y512698D02*
X850549Y513765D01*
X850549Y515098D01*
X851104Y516432D01*
X852216Y516698D01*
X854104Y516698D01*
X855216Y516032D01*
X855549Y514698D01*
X855216Y513365D01*
X854438Y512698D01*
X853327Y512698D01*
X853327Y516698D01*
G54D10*
X851104Y510254D02*
X850549Y508921D01*
X850549Y507588D01*
X851104Y506254D01*
X852216Y506254D01*
X852771Y506921D01*
X853327Y509588D01*
X853882Y510254D01*
X854994Y510254D01*
X855549Y508921D01*
X855549Y507588D01*
X854994Y506254D01*
G54D10*
X851104Y499810D02*
X850549Y500877D01*
X850549Y502210D01*
X851104Y503544D01*
X852216Y503810D01*
X854104Y503810D01*
X855216Y503144D01*
X855549Y501810D01*
X855216Y500477D01*
X854438Y499810D01*
X853327Y499810D01*
X853327Y503810D01*
G54D10*
X859438Y496033D02*
X851104Y496033D01*
X850549Y495366D01*
X850771Y494700D01*
G54D10*
X855549Y497366D02*
X855549Y494700D01*
G54D10*
X816906Y495373D02*
X822239Y495373D01*
G54D10*
X819573Y497596D02*
X819573Y493151D01*
G54D10*
X830016Y500373D02*
X824683Y500373D01*
X824683Y496484D01*
X825350Y496484D01*
X826683Y497040D01*
X828016Y497040D01*
X829350Y496484D01*
X830016Y495373D01*
X830016Y493151D01*
X829350Y492040D01*
X828016Y491484D01*
X826683Y491484D01*
X825350Y492040D01*
X824683Y493151D01*
G54D10*
X832460Y500373D02*
X835793Y491484D01*
X839127Y500373D01*
G54D10*
X694668Y493072D02*
X698002Y501961D01*
X701335Y493072D01*
G54D10*
X696002Y496405D02*
X700002Y496405D01*
G54D10*
X703780Y500294D02*
X704446Y501405D01*
X705780Y501961D01*
X707113Y501961D01*
X708446Y501405D01*
X709113Y500294D01*
X709113Y499183D01*
X708446Y498072D01*
X707113Y497516D01*
X708446Y496961D01*
X709113Y495850D01*
X709113Y494739D01*
X708446Y493627D01*
X707113Y493072D01*
X705780Y493072D01*
X704446Y493627D01*
X703780Y494739D01*
G54D10*
X669268Y493072D02*
X672602Y501961D01*
X675935Y493072D01*
G54D10*
X670602Y496405D02*
X674602Y496405D01*
G54D10*
X683713Y493072D02*
X678380Y493072D01*
X678380Y493627D01*
X679046Y494738D01*
X683046Y498072D01*
X683713Y499183D01*
X683713Y500294D01*
X683046Y501405D01*
X681713Y501961D01*
X680380Y501961D01*
X679046Y501405D01*
X678380Y500294D01*
G54D10*
X720068Y493072D02*
X723402Y501961D01*
X726735Y493072D01*
G54D10*
X721402Y496405D02*
X725402Y496405D01*
G54D10*
X733180Y493072D02*
X733180Y501961D01*
X729180Y496405D01*
X729180Y495294D01*
X734513Y495294D01*
G54D10*
X745468Y493072D02*
X748802Y501961D01*
X752135Y493072D01*
G54D10*
X746802Y496405D02*
X750802Y496405D01*
G54D10*
X759913Y501961D02*
X754580Y501961D01*
X754580Y498072D01*
X755246Y498072D01*
X756580Y498627D01*
X757913Y498627D01*
X759246Y498072D01*
X759913Y496961D01*
X759913Y494738D01*
X759246Y493627D01*
X757913Y493072D01*
X756580Y493072D01*
X755246Y493627D01*
X754580Y494738D01*
G54D10*
X643868Y493072D02*
X647202Y501961D01*
X650535Y493072D01*
G54D10*
X645202Y496405D02*
X649202Y496405D01*
G54D10*
X652980Y498627D02*
X656313Y501961D01*
X656313Y493072D01*
G54D10*
X618468Y493072D02*
X621802Y501961D01*
X625135Y493072D01*
G54D10*
X619802Y496405D02*
X623802Y496405D01*
G54D10*
X632913Y500294D02*
X632913Y494738D01*
X632246Y493627D01*
X630913Y493072D01*
X629580Y493072D01*
X628246Y493627D01*
X627580Y494738D01*
X627580Y500294D01*
X628246Y501405D01*
X629580Y501961D01*
X630913Y501961D01*
X632246Y501405D01*
X632913Y500294D01*
G54D10*
X770868Y493072D02*
X774202Y501961D01*
X777535Y493072D01*
G54D10*
X772202Y496405D02*
X776202Y496405D01*
G54D10*
X785313Y500294D02*
X784646Y501405D01*
X783313Y501961D01*
X781980Y501961D01*
X780646Y501405D01*
X779980Y500294D01*
X779980Y497516D01*
X779980Y496961D01*
X781980Y498072D01*
X783313Y498072D01*
X784646Y497516D01*
X785313Y496405D01*
X785313Y494739D01*
X784646Y493627D01*
X783313Y493072D01*
X781980Y493072D01*
X780646Y493627D01*
X779980Y494739D01*
X779980Y497516D01*
G54D10*
X796268Y493072D02*
X799602Y501961D01*
X802935Y493072D01*
G54D10*
X797602Y496405D02*
X801602Y496405D01*
G54D10*
X805380Y501961D02*
X810713Y501961D01*
X810046Y500850D01*
X808713Y499183D01*
X807380Y496961D01*
X806713Y495294D01*
X806713Y493072D01*
G54D11*
X544512Y447675D02*
X544512Y452119D01*
X546179Y452119D01*
X546846Y451842D01*
X547179Y451286D01*
X547179Y450731D01*
X546846Y450175D01*
X546179Y449897D01*
X544512Y449897D01*
G54D11*
X548402Y447675D02*
X548402Y452119D01*
X550068Y452119D01*
X550735Y451842D01*
X551068Y451286D01*
X551068Y450731D01*
X550735Y450175D01*
X550068Y449897D01*
X550735Y449619D01*
X551068Y449064D01*
X551068Y448508D01*
X550735Y447953D01*
X550068Y447675D01*
X548402Y447675D01*
G54D11*
X548402Y449897D02*
X550068Y449897D01*
G54D11*
X554957Y452119D02*
X552290Y452119D01*
X552290Y450175D01*
X552624Y450175D01*
X553290Y450453D01*
X553957Y450453D01*
X554624Y450175D01*
X554957Y449619D01*
X554957Y448508D01*
X554624Y447953D01*
X553957Y447675D01*
X553290Y447675D01*
X552624Y447953D01*
X552290Y448508D01*
G54D11*
X620712Y447675D02*
X620712Y452119D01*
X622379Y452119D01*
X623046Y451842D01*
X623379Y451286D01*
X623379Y450731D01*
X623046Y450175D01*
X622379Y449897D01*
X620712Y449897D01*
G54D11*
X627268Y448508D02*
X626935Y447953D01*
X626268Y447675D01*
X625602Y447675D01*
X624935Y447953D01*
X624602Y448508D01*
X624602Y451286D01*
X624935Y451842D01*
X625602Y452119D01*
X626268Y452119D01*
X626935Y451842D01*
X627268Y451286D01*
G54D11*
X631157Y451286D02*
X631157Y448508D01*
X630824Y447953D01*
X630157Y447675D01*
X629490Y447675D01*
X628824Y447953D01*
X628490Y448508D01*
X628490Y451286D01*
X628824Y451842D01*
X629490Y452119D01*
X630157Y452119D01*
X630824Y451842D01*
X631157Y451286D01*
G54D11*
X646112Y447675D02*
X646112Y452119D01*
X647779Y452119D01*
X648446Y451842D01*
X648779Y451286D01*
X648779Y450731D01*
X648446Y450175D01*
X647779Y449897D01*
X646112Y449897D01*
G54D11*
X652668Y448508D02*
X652335Y447953D01*
X651668Y447675D01*
X651002Y447675D01*
X650335Y447953D01*
X650002Y448508D01*
X650002Y451286D01*
X650335Y451842D01*
X651002Y452119D01*
X651668Y452119D01*
X652335Y451842D01*
X652668Y451286D01*
G54D11*
X653890Y450453D02*
X655557Y452119D01*
X655557Y447675D01*
G54D11*
X671462Y447675D02*
X671462Y452119D01*
X673129Y452119D01*
X673796Y451842D01*
X674129Y451286D01*
X674129Y450730D01*
X673796Y450175D01*
X673129Y449897D01*
X671462Y449897D01*
G54D11*
X678018Y448508D02*
X677685Y447953D01*
X677018Y447675D01*
X676352Y447675D01*
X675685Y447953D01*
X675352Y448508D01*
X675352Y451286D01*
X675685Y451842D01*
X676352Y452119D01*
X677018Y452119D01*
X677685Y451842D01*
X678018Y451286D01*
G54D11*
X681907Y447675D02*
X679240Y447675D01*
X679240Y447953D01*
X679574Y448508D01*
X681574Y450175D01*
X681907Y450730D01*
X681907Y451286D01*
X681574Y451842D01*
X680907Y452119D01*
X680240Y452119D01*
X679574Y451842D01*
X679240Y451286D01*
G54D11*
X696789Y447397D02*
X696789Y451842D01*
X698455Y451842D01*
X699122Y451564D01*
X699455Y451008D01*
X699455Y450453D01*
X699122Y449897D01*
X698455Y449620D01*
X696789Y449620D01*
G54D11*
X703344Y448231D02*
X703011Y447675D01*
X702344Y447397D01*
X701678Y447397D01*
X701011Y447675D01*
X700678Y448231D01*
X700678Y451008D01*
X701011Y451564D01*
X701678Y451842D01*
X702344Y451842D01*
X703011Y451564D01*
X703344Y451008D01*
G54D11*
X704567Y451008D02*
X704900Y451564D01*
X705567Y451842D01*
X706233Y451842D01*
X706900Y451564D01*
X707233Y451008D01*
X707233Y450453D01*
X706900Y449897D01*
X706233Y449620D01*
X706900Y449342D01*
X707233Y448786D01*
X707233Y448231D01*
X706900Y447675D01*
X706233Y447397D01*
X705567Y447397D01*
X704900Y447675D01*
X704567Y448231D01*
G54D11*
X721569Y447993D02*
X721569Y452438D01*
X723236Y452438D01*
X723903Y452160D01*
X724236Y451604D01*
X724236Y451049D01*
X723903Y450493D01*
X723236Y450215D01*
X721569Y450215D01*
G54D11*
X728125Y448826D02*
X727792Y448271D01*
X727125Y447993D01*
X726458Y447993D01*
X725792Y448271D01*
X725458Y448826D01*
X725458Y451604D01*
X725792Y452160D01*
X726458Y452438D01*
X727125Y452438D01*
X727792Y452160D01*
X728125Y451604D01*
G54D11*
X731347Y447993D02*
X731347Y452438D01*
X729347Y449660D01*
X729347Y449104D01*
X732014Y449104D01*
G54D11*
X747536Y447993D02*
X747536Y452438D01*
X749203Y452438D01*
X749869Y452160D01*
X750203Y451604D01*
X750203Y451049D01*
X749869Y450493D01*
X749203Y450215D01*
X747536Y450215D01*
G54D11*
X754092Y448826D02*
X753758Y448271D01*
X753092Y447993D01*
X752425Y447993D01*
X751758Y448271D01*
X751425Y448826D01*
X751425Y451604D01*
X751758Y452160D01*
X752425Y452438D01*
X753092Y452438D01*
X753758Y452160D01*
X754092Y451604D01*
G54D11*
X757981Y452438D02*
X755314Y452438D01*
X755314Y450493D01*
X755647Y450493D01*
X756314Y450771D01*
X756981Y450771D01*
X757647Y450493D01*
X757981Y449938D01*
X757981Y448826D01*
X757647Y448271D01*
X756981Y447993D01*
X756314Y447993D01*
X755647Y448271D01*
X755314Y448826D01*
G54D11*
X849312Y642938D02*
X849312Y647382D01*
X850979Y647382D01*
X851646Y647104D01*
X851979Y646549D01*
X851979Y645993D01*
X851646Y645438D01*
X850979Y645160D01*
X849312Y645160D01*
G54D11*
X855868Y643771D02*
X855535Y643215D01*
X854868Y642938D01*
X854202Y642938D01*
X853535Y643215D01*
X853202Y643771D01*
X853202Y646549D01*
X853535Y647104D01*
X854202Y647382D01*
X854868Y647382D01*
X855535Y647104D01*
X855868Y646549D01*
G54D11*
X859757Y646549D02*
X859424Y647104D01*
X858757Y647382D01*
X858090Y647382D01*
X857424Y647104D01*
X857090Y646549D01*
X857090Y645160D01*
X857090Y644882D01*
X858090Y645438D01*
X858757Y645438D01*
X859424Y645160D01*
X859757Y644604D01*
X859757Y643771D01*
X859424Y643215D01*
X858757Y642938D01*
X858090Y642938D01*
X857424Y643215D01*
X857090Y643771D01*
X857090Y645160D01*
G54D11*
X900523Y642653D02*
X900523Y647098D01*
X902189Y647098D01*
X902856Y646820D01*
X903189Y646264D01*
X903189Y645709D01*
X902856Y645153D01*
X902189Y644876D01*
X900523Y644876D01*
G54D11*
X904412Y642653D02*
X904412Y647098D01*
X906078Y647098D01*
X906745Y646820D01*
X907078Y646264D01*
X907078Y643487D01*
X906745Y642931D01*
X906078Y642653D01*
X904412Y642653D01*
G54D11*
X908301Y645431D02*
X909967Y647098D01*
X909967Y642653D01*
G54D11*
X875123Y642653D02*
X875123Y647098D01*
X876789Y647098D01*
X877456Y646820D01*
X877789Y646264D01*
X877789Y645709D01*
X877456Y645153D01*
X876789Y644876D01*
X875123Y644876D01*
G54D11*
X879012Y642653D02*
X879012Y647098D01*
X880678Y647098D01*
X881345Y646820D01*
X881678Y646264D01*
X881678Y643487D01*
X881345Y642931D01*
X880678Y642653D01*
X879012Y642653D01*
G54D11*
X885567Y646264D02*
X885567Y643487D01*
X885234Y642931D01*
X884567Y642653D01*
X883901Y642653D01*
X883234Y642931D01*
X882901Y643487D01*
X882901Y646264D01*
X883234Y646820D01*
X883901Y647098D01*
X884567Y647098D01*
X885234Y646820D01*
X885567Y646264D01*
G54D11*
X798923Y642653D02*
X798923Y647098D01*
X800589Y647098D01*
X801256Y646820D01*
X801589Y646264D01*
X801589Y645709D01*
X801256Y645153D01*
X800589Y644876D01*
X798923Y644876D01*
G54D11*
X802812Y642653D02*
X802812Y647098D01*
X804478Y647098D01*
X805145Y646820D01*
X805478Y646264D01*
X805478Y643487D01*
X805145Y642931D01*
X804478Y642653D01*
X802812Y642653D01*
G54D11*
X809367Y642653D02*
X806701Y642653D01*
X806701Y642931D01*
X807034Y643487D01*
X809034Y645153D01*
X809367Y645709D01*
X809367Y646264D01*
X809034Y646820D01*
X808367Y647098D01*
X807701Y647098D01*
X807034Y646820D01*
X806701Y646264D01*
G54D11*
X773523Y642653D02*
X773523Y647098D01*
X775189Y647098D01*
X775856Y646820D01*
X776189Y646264D01*
X776189Y645709D01*
X775856Y645153D01*
X775189Y644876D01*
X773523Y644876D01*
G54D11*
X777412Y642653D02*
X777412Y647098D01*
X779078Y647098D01*
X779745Y646820D01*
X780078Y646264D01*
X780078Y643487D01*
X779745Y642931D01*
X779078Y642653D01*
X777412Y642653D01*
G54D11*
X781301Y646264D02*
X781634Y646820D01*
X782301Y647098D01*
X782967Y647098D01*
X783634Y646820D01*
X783967Y646264D01*
X783967Y645709D01*
X783634Y645153D01*
X782967Y644876D01*
X783634Y644598D01*
X783967Y644042D01*
X783967Y643487D01*
X783634Y642931D01*
X782967Y642653D01*
X782301Y642653D01*
X781634Y642931D01*
X781301Y643487D01*
G54D11*
X748123Y642653D02*
X748123Y647098D01*
X749789Y647098D01*
X750456Y646820D01*
X750789Y646264D01*
X750789Y645709D01*
X750456Y645153D01*
X749789Y644876D01*
X748123Y644876D01*
G54D11*
X752012Y642653D02*
X752012Y647098D01*
X753678Y647098D01*
X754345Y646820D01*
X754678Y646264D01*
X754678Y643487D01*
X754345Y642931D01*
X753678Y642653D01*
X752012Y642653D01*
G54D11*
X757901Y642653D02*
X757901Y647098D01*
X755901Y644320D01*
X755901Y643764D01*
X758567Y643764D01*
G54D11*
X722723Y642653D02*
X722723Y647098D01*
X724389Y647098D01*
X725056Y646820D01*
X725389Y646264D01*
X725389Y645709D01*
X725056Y645153D01*
X724389Y644876D01*
X722723Y644876D01*
G54D11*
X726612Y642653D02*
X726612Y647098D01*
X728278Y647098D01*
X728945Y646820D01*
X729278Y646264D01*
X729278Y643487D01*
X728945Y642931D01*
X728278Y642653D01*
X726612Y642653D01*
G54D11*
X733167Y647098D02*
X730501Y647098D01*
X730501Y645153D01*
X730834Y645153D01*
X731501Y645431D01*
X732167Y645431D01*
X732834Y645153D01*
X733167Y644598D01*
X733167Y643487D01*
X732834Y642931D01*
X732167Y642653D01*
X731501Y642653D01*
X730834Y642931D01*
X730501Y643487D01*
G54D11*
X697323Y642653D02*
X697323Y647098D01*
X698989Y647098D01*
X699656Y646820D01*
X699989Y646264D01*
X699989Y645709D01*
X699656Y645153D01*
X698989Y644876D01*
X697323Y644876D01*
G54D11*
X701212Y642653D02*
X701212Y647098D01*
X702878Y647098D01*
X703545Y646820D01*
X703878Y646264D01*
X703878Y643487D01*
X703545Y642931D01*
X702878Y642653D01*
X701212Y642653D01*
G54D11*
X707767Y646264D02*
X707434Y646820D01*
X706767Y647098D01*
X706101Y647098D01*
X705434Y646820D01*
X705101Y646264D01*
X705101Y644876D01*
X705101Y644598D01*
X706101Y645153D01*
X706767Y645153D01*
X707434Y644876D01*
X707767Y644320D01*
X707767Y643487D01*
X707434Y642931D01*
X706767Y642653D01*
X706101Y642653D01*
X705434Y642931D01*
X705101Y643487D01*
X705101Y644876D01*
G54D11*
X671923Y642653D02*
X671923Y647098D01*
X673589Y647098D01*
X674256Y646820D01*
X674589Y646264D01*
X674589Y645709D01*
X674256Y645153D01*
X673589Y644876D01*
X671923Y644876D01*
G54D11*
X675812Y642653D02*
X675812Y647098D01*
X677478Y647098D01*
X678145Y646820D01*
X678478Y646264D01*
X678478Y643487D01*
X678145Y642931D01*
X677478Y642653D01*
X675812Y642653D01*
G54D11*
X679701Y647098D02*
X682367Y647098D01*
X682034Y646542D01*
X681367Y645709D01*
X680701Y644598D01*
X680367Y643764D01*
X680367Y642653D01*
G54D12*
X549275Y484188D02*
X542875Y484188D01*
X536575Y477888D01*
X536575Y465088D01*
X542875Y458788D01*
X555675Y458788D01*
X561975Y465088D01*
X561975Y477888D01*
X555675Y484188D01*
X549275Y484188D01*
G54D12*
X574675Y484188D02*
X568275Y484188D01*
X561975Y477888D01*
X561975Y465088D01*
X568275Y458788D01*
X581075Y458788D01*
X587375Y465088D01*
X587375Y477888D01*
X581075Y484188D01*
X574675Y484188D01*
G54D12*
X600075Y484188D02*
X593675Y484188D01*
X587375Y477888D01*
X587375Y465088D01*
X593675Y458788D01*
X606475Y458788D01*
X612775Y465088D01*
X612775Y477888D01*
X606475Y484188D01*
X600075Y484188D01*
G54D12*
X625475Y484188D02*
X619075Y484188D01*
X612775Y477888D01*
X612775Y465088D01*
X619075Y458788D01*
X631875Y458788D01*
X638175Y465088D01*
X638175Y477888D01*
X631875Y484188D01*
X625475Y484188D01*
G54D12*
X650875Y484188D02*
X644475Y484188D01*
X638175Y477888D01*
X638175Y465088D01*
X644475Y458788D01*
X657275Y458788D01*
X663575Y465088D01*
X663575Y477888D01*
X657275Y484188D01*
X650875Y484188D01*
G54D12*
X676275Y484188D02*
X669875Y484188D01*
X663575Y477888D01*
X663575Y465088D01*
X669875Y458788D01*
X682675Y458788D01*
X688975Y465088D01*
X688975Y477888D01*
X682675Y484188D01*
X676275Y484188D01*
G54D12*
X701675Y484188D02*
X695275Y484188D01*
X688975Y477888D01*
X688975Y465088D01*
X695275Y458788D01*
X708075Y458788D01*
X714375Y465088D01*
X714375Y477888D01*
X708075Y484188D01*
X701675Y484188D01*
G54D12*
X727075Y484188D02*
X720675Y484188D01*
X714375Y477888D01*
X714375Y465088D01*
X720675Y458788D01*
X733475Y458788D01*
X739775Y465088D01*
X739775Y477888D01*
X733475Y484188D01*
X727075Y484188D01*
G54D12*
X752475Y484188D02*
X746075Y484188D01*
X739775Y477888D01*
X739775Y465088D01*
X746075Y458788D01*
X758875Y458788D01*
X765175Y465088D01*
X765175Y477888D01*
X758875Y484188D01*
X752475Y484188D01*
G54D12*
X777875Y484188D02*
X771475Y484188D01*
X765175Y477888D01*
X765175Y465088D01*
X771475Y458788D01*
X784275Y458788D01*
X790575Y465088D01*
X790575Y477888D01*
X784275Y484188D01*
X777875Y484188D01*
G54D12*
X803275Y484188D02*
X796875Y484188D01*
X790575Y477888D01*
X790575Y465088D01*
X796875Y458788D01*
X809675Y458788D01*
X815975Y465088D01*
X815975Y477888D01*
X809675Y484188D01*
X803275Y484188D01*
G54D12*
X828675Y484188D02*
X822275Y484188D01*
X815975Y477888D01*
X815975Y465088D01*
X822275Y458788D01*
X835075Y458788D01*
X841375Y465088D01*
X841375Y477888D01*
X835075Y484188D01*
X828675Y484188D01*
G54D12*
X854075Y484188D02*
X847675Y484188D01*
X841375Y477888D01*
X841375Y465088D01*
X847675Y458788D01*
X860475Y458788D01*
X866775Y465088D01*
X866775Y477888D01*
X860475Y484188D01*
X854075Y484188D01*
G54D12*
X879475Y484188D02*
X873075Y484188D01*
X866775Y477888D01*
X866775Y465088D01*
X873075Y458788D01*
X885875Y458788D01*
X892175Y465088D01*
X892175Y477888D01*
X885875Y484188D01*
X879475Y484188D01*
G54D12*
X904875Y484188D02*
X898475Y484188D01*
X892175Y477888D01*
X892175Y465088D01*
X898475Y458788D01*
X911275Y458788D01*
X917575Y465088D01*
X917575Y477888D01*
X911275Y484188D01*
X904875Y484188D01*
G54D12*
X549275Y636588D02*
X542875Y636588D01*
X536575Y630288D01*
X536575Y617488D01*
X542875Y611188D01*
X555675Y611188D01*
X561975Y617488D01*
X561975Y630288D01*
X555675Y636588D01*
X549275Y636588D01*
G54D12*
X574675Y636588D02*
X568275Y636588D01*
X561975Y630288D01*
X561975Y617488D01*
X568275Y611188D01*
X581075Y611188D01*
X587375Y617488D01*
X587375Y630288D01*
X581075Y636588D01*
X574675Y636588D01*
G54D12*
X600075Y636588D02*
X593675Y636588D01*
X587375Y630288D01*
X587375Y617488D01*
X593675Y611188D01*
X606475Y611188D01*
X612775Y617488D01*
X612775Y630288D01*
X606475Y636588D01*
X600075Y636588D01*
G54D12*
X625475Y636588D02*
X619075Y636588D01*
X612775Y630288D01*
X612775Y617488D01*
X619075Y611188D01*
X631875Y611188D01*
X638175Y617488D01*
X638175Y630288D01*
X631875Y636588D01*
X625475Y636588D01*
G54D12*
X650875Y636588D02*
X644475Y636588D01*
X638175Y630288D01*
X638175Y617488D01*
X644475Y611188D01*
X657275Y611188D01*
X663575Y617488D01*
X663575Y630288D01*
X657275Y636588D01*
X650875Y636588D01*
G54D12*
X676275Y636588D02*
X669875Y636588D01*
X663575Y630288D01*
X663575Y617488D01*
X669875Y611188D01*
X682675Y611188D01*
X688975Y617488D01*
X688975Y630288D01*
X682675Y636588D01*
X676275Y636588D01*
G54D12*
X701675Y636588D02*
X695275Y636588D01*
X688975Y630288D01*
X688975Y617488D01*
X695275Y611188D01*
X708075Y611188D01*
X714375Y617488D01*
X714375Y630288D01*
X708075Y636588D01*
X701675Y636588D01*
G54D12*
X727075Y636588D02*
X720675Y636588D01*
X714375Y630288D01*
X714375Y617488D01*
X720675Y611188D01*
X733475Y611188D01*
X739775Y617488D01*
X739775Y630288D01*
X733475Y636588D01*
X727075Y636588D01*
G54D12*
X752475Y636588D02*
X746075Y636588D01*
X739775Y630288D01*
X739775Y617488D01*
X746075Y611188D01*
X758875Y611188D01*
X765175Y617488D01*
X765175Y630288D01*
X758875Y636588D01*
X752475Y636588D01*
G54D12*
X777875Y636588D02*
X771475Y636588D01*
X765175Y630288D01*
X765175Y617488D01*
X771475Y611188D01*
X784275Y611188D01*
X790575Y617488D01*
X790575Y630288D01*
X784275Y636588D01*
X777875Y636588D01*
G54D12*
X803275Y636588D02*
X796875Y636588D01*
X790575Y630288D01*
X790575Y617488D01*
X796875Y611188D01*
X809675Y611188D01*
X815975Y617488D01*
X815975Y630288D01*
X809675Y636588D01*
X803275Y636588D01*
G54D12*
X828675Y636588D02*
X822275Y636588D01*
X815975Y630288D01*
X815975Y617488D01*
X822275Y611188D01*
X835075Y611188D01*
X841375Y617488D01*
X841375Y630288D01*
X835075Y636588D01*
X828675Y636588D01*
G54D12*
X854075Y636588D02*
X847675Y636588D01*
X841375Y630288D01*
X841375Y617488D01*
X847675Y611188D01*
X860475Y611188D01*
X866775Y617488D01*
X866775Y630288D01*
X860475Y636588D01*
X854075Y636588D01*
G54D12*
X879475Y636588D02*
X873075Y636588D01*
X866775Y630288D01*
X866775Y617488D01*
X873075Y611188D01*
X885875Y611188D01*
X892175Y617488D01*
X892175Y630288D01*
X885875Y636588D01*
X879475Y636588D01*
G54D12*
X904875Y636588D02*
X898475Y636588D01*
X892175Y630288D01*
X892175Y617488D01*
X898475Y611188D01*
X911275Y611188D01*
X917575Y617488D01*
X917575Y630288D01*
X911275Y636588D01*
X904875Y636588D01*
G54D13*
X511175Y649288D02*
X942975Y649288D01*
X942975Y446088D01*
X511175Y446088D01*
X511175Y649288D01*
G54D12*
X930275Y560388D02*
X936675Y560388D01*
X942975Y566687D01*
X942975Y579488D01*
X936675Y585787D01*
X923875Y585788D01*
X917575Y579488D01*
X917575Y566687D01*
X923875Y560388D01*
X930275Y560388D01*
G54D12*
X904875Y560388D02*
X911275Y560388D01*
X917575Y566687D01*
X917575Y579488D01*
X911275Y585787D01*
X898475Y585788D01*
X892175Y579487D01*
X892175Y566687D01*
X898475Y560388D01*
X904875Y560388D01*
G54D12*
X930275Y534988D02*
X936675Y534988D01*
X942975Y541288D01*
X942975Y554088D01*
X936675Y560388D01*
X923875Y560388D01*
X917575Y554088D01*
X917575Y541288D01*
X923875Y534988D01*
X930275Y534988D01*
G54D12*
X904875Y534988D02*
X911275Y534988D01*
X917575Y541288D01*
X917575Y554088D01*
X911275Y560388D01*
X898475Y560388D01*
X892175Y554088D01*
X892175Y541288D01*
X898475Y534988D01*
X904875Y534988D01*
G54D12*
X930275Y509588D02*
X936675Y509588D01*
X942975Y515888D01*
X942975Y528688D01*
X936675Y534988D01*
X923875Y534988D01*
X917575Y528688D01*
X917575Y515888D01*
X923875Y509588D01*
X930275Y509588D01*
G54D12*
X904875Y509588D02*
X911275Y509588D01*
X917575Y515888D01*
X917575Y528688D01*
X911275Y534988D01*
X898475Y534988D01*
X892175Y528688D01*
X892175Y515888D01*
X898475Y509588D01*
X904875Y509588D01*
G54D14*
X498475Y509588D02*
X592931Y509588D01*
X592931Y586581D01*
X498475Y586581D01*
X498475Y509588D01*
G54D15*
X595081Y564071D02*
X594081Y563071D01*
X594081Y565737D01*
G54D15*
X593181Y557800D02*
X594781Y557800D01*
X594781Y557633D01*
X594581Y557300D01*
X593381Y556300D01*
X593181Y555966D01*
X593181Y555633D01*
X593381Y555300D01*
X593781Y555133D01*
X594181Y555133D01*
X594581Y555300D01*
X594781Y555633D01*
G54D15*
X594988Y547658D02*
X594788Y547325D01*
X594388Y547158D01*
X593988Y547158D01*
X593588Y547325D01*
X593388Y547658D01*
X593388Y547992D01*
X593588Y548325D01*
X593988Y548492D01*
X593588Y548658D01*
X593388Y548992D01*
X593388Y549325D01*
X593588Y549658D01*
X593988Y549825D01*
X594388Y549825D01*
X594788Y549658D01*
X594988Y549325D01*
G54D15*
X593788Y541887D02*
X593788Y539221D01*
X594988Y540887D01*
X594988Y541221D01*
X593388Y541221D01*
G54D15*
X593388Y531283D02*
X594988Y531283D01*
X594988Y532450D01*
X594788Y532450D01*
X594388Y532283D01*
X593988Y532283D01*
X593588Y532450D01*
X593388Y532783D01*
X593388Y533450D01*
X593588Y533783D01*
X593988Y533950D01*
X594388Y533950D01*
X594788Y533783D01*
X594988Y533450D01*
G54D15*
X589431Y589794D02*
X589231Y590127D01*
X588831Y590294D01*
X588431Y590294D01*
X588031Y590127D01*
X587831Y589794D01*
X587831Y589460D01*
X588031Y589127D01*
X588431Y588960D01*
X588831Y588960D01*
X589231Y588794D01*
X589431Y588460D01*
X589431Y588127D01*
X589231Y587794D01*
X588831Y587627D01*
X588431Y587627D01*
X588031Y587794D01*
X587831Y588127D01*
G54D15*
X587131Y590294D02*
X587131Y587627D01*
G54D15*
X585531Y590294D02*
X585531Y587627D01*
G54D15*
X587131Y588960D02*
X585531Y588960D01*
G54D15*
X584831Y587627D02*
X584831Y590294D01*
X583431Y590294D01*
G54D15*
X582731Y590294D02*
X582731Y587627D01*
X581731Y587627D01*
X581331Y587794D01*
X581131Y588127D01*
X581131Y589794D01*
X581331Y590127D01*
X581731Y590294D01*
X582731Y590294D01*
G54D15*
X590225Y508088D02*
X590025Y508421D01*
X589625Y508588D01*
X589225Y508588D01*
X588825Y508421D01*
X588625Y508088D01*
X588625Y507754D01*
X588825Y507421D01*
X589225Y507254D01*
X589625Y507254D01*
X590025Y507088D01*
X590225Y506754D01*
X590225Y506421D01*
X590025Y506088D01*
X589625Y505921D01*
X589225Y505921D01*
X588825Y506088D01*
X588625Y506421D01*
G54D15*
X587925Y508588D02*
X587925Y505921D01*
G54D15*
X586325Y508588D02*
X586325Y505921D01*
G54D15*
X587925Y507254D02*
X586325Y507254D01*
G54D15*
X585625Y505921D02*
X585625Y508588D01*
X584225Y508588D01*
G54D15*
X583525Y508588D02*
X583525Y505921D01*
X582525Y505921D01*
X582125Y506088D01*
X581925Y506421D01*
X581925Y508088D01*
X582125Y508421D01*
X582525Y508588D01*
X583525Y508588D01*
G54D15*
X591012Y532616D02*
X590212Y532616D01*
X590212Y533450D01*
X590412Y533783D01*
X590812Y533950D01*
X591212Y533950D01*
X591612Y533783D01*
X591812Y533450D01*
X591812Y531783D01*
X591612Y531450D01*
X591212Y531283D01*
X590812Y531283D01*
X590412Y531450D01*
X590212Y531783D01*
G54D15*
X589512Y533950D02*
X589512Y531283D01*
X587912Y533950D01*
X587912Y531283D01*
G54D15*
X587212Y533950D02*
X587212Y531283D01*
X586212Y531283D01*
X585812Y531450D01*
X585612Y531783D01*
X585612Y533450D01*
X585812Y533783D01*
X586212Y533950D01*
X587212Y533950D01*
G54D16*
X591812Y548658D02*
X590212Y548658D01*
G54D16*
X591012Y547992D02*
X591012Y549325D01*
G54D16*
X589480Y549825D02*
X589480Y547158D01*
X588480Y547158D01*
X588080Y547325D01*
X587880Y547658D01*
X587880Y549325D01*
X588080Y549658D01*
X588480Y549825D01*
X589480Y549825D01*
G54D16*
X587146Y548492D02*
X586746Y548325D01*
X586266Y548325D01*
X585946Y548658D01*
X585946Y549825D01*
G54D16*
X585946Y549325D02*
X586146Y548992D01*
X586546Y548925D01*
X586946Y548992D01*
X587146Y549325D01*
X587066Y549658D01*
X586746Y549825D01*
X586546Y549825D01*
X586466Y549825D01*
X586146Y549658D01*
X585946Y549325D01*
G54D16*
X584814Y547158D02*
X584814Y549658D01*
X584614Y549825D01*
X584414Y549758D01*
G54D16*
X585214Y548325D02*
X584414Y548325D01*
G54D16*
X583680Y548492D02*
X583280Y548325D01*
X582800Y548325D01*
X582480Y548658D01*
X582480Y549825D01*
G54D16*
X582480Y549325D02*
X582680Y548992D01*
X583080Y548925D01*
X583480Y548992D01*
X583680Y549325D01*
X583600Y549658D01*
X583280Y549825D01*
X583080Y549825D01*
X583000Y549825D01*
X582680Y549658D01*
X582480Y549325D01*
G54D16*
X591812Y556596D02*
X590212Y556596D01*
G54D16*
X589480Y557762D02*
X589480Y555096D01*
X588480Y555096D01*
X588080Y555262D01*
X587880Y555596D01*
X587880Y557262D01*
X588080Y557596D01*
X588480Y557762D01*
X589480Y557762D01*
G54D16*
X587146Y556429D02*
X586746Y556262D01*
X586266Y556262D01*
X585946Y556596D01*
X585946Y557762D01*
G54D16*
X585946Y557262D02*
X586146Y556929D01*
X586546Y556862D01*
X586946Y556929D01*
X587146Y557262D01*
X587066Y557596D01*
X586746Y557762D01*
X586546Y557762D01*
X586466Y557762D01*
X586146Y557596D01*
X585946Y557262D01*
G54D16*
X584814Y555096D02*
X584814Y557596D01*
X584614Y557762D01*
X584414Y557696D01*
G54D16*
X585214Y556262D02*
X584414Y556262D01*
G54D16*
X583680Y556429D02*
X583280Y556262D01*
X582800Y556262D01*
X582480Y556596D01*
X582480Y557762D01*
G54D16*
X582480Y557262D02*
X582680Y556929D01*
X583080Y556862D01*
X583480Y556929D01*
X583680Y557262D01*
X583600Y557596D01*
X583280Y557762D01*
X583080Y557762D01*
X583000Y557762D01*
X582680Y557596D01*
X582480Y557262D01*
G54D16*
X592606Y563033D02*
X591606Y565700D01*
X590606Y563033D01*
G54D16*
X588273Y565200D02*
X588473Y565533D01*
X588873Y565700D01*
X589273Y565700D01*
X589673Y565533D01*
X589873Y565200D01*
X589873Y563533D01*
X589673Y563200D01*
X589273Y563033D01*
X588873Y563033D01*
X588473Y563200D01*
X588273Y563533D01*
G54D16*
X585940Y565200D02*
X586140Y565533D01*
X586540Y565700D01*
X586940Y565700D01*
X587340Y565533D01*
X587540Y565200D01*
X587540Y563533D01*
X587340Y563200D01*
X586940Y563033D01*
X586540Y563033D01*
X586140Y563200D01*
X585940Y563533D01*
G54D15*
X592169Y582752D02*
X592169Y584919D01*
X591969Y585252D01*
X591569Y585419D01*
X591169Y585419D01*
X590769Y585252D01*
X590569Y584919D01*
X590569Y582752D01*
G54D15*
X589869Y584919D02*
X589669Y585252D01*
X589269Y585419D01*
X588869Y585419D01*
X588469Y585252D01*
X588269Y584919D01*
X588269Y584585D01*
X588469Y584252D01*
X588869Y584085D01*
X589269Y584085D01*
X589669Y583919D01*
X589869Y583585D01*
X589869Y583252D01*
X589669Y582919D01*
X589269Y582752D01*
X588869Y582752D01*
X588469Y582919D01*
X588269Y583252D01*
G54D15*
X587569Y585419D02*
X587569Y582752D01*
X586569Y582752D01*
X586169Y582919D01*
X585969Y583252D01*
X585969Y583585D01*
X586169Y583919D01*
X586569Y584085D01*
X586169Y584252D01*
X585969Y584585D01*
X585969Y584919D01*
X586169Y585252D01*
X586569Y585419D01*
X587569Y585419D01*
G54D15*
X587569Y584085D02*
X586569Y584085D01*
G54D15*
X584569Y585419D02*
X584569Y583919D01*
G54D15*
X584569Y584185D02*
X584169Y583919D01*
X583769Y584019D01*
X583569Y584252D01*
X583569Y585419D01*
G54D15*
X583569Y584185D02*
X583169Y583919D01*
X582769Y584019D01*
X582569Y584252D01*
X582569Y585419D01*
G54D15*
X581869Y585419D02*
X581869Y583919D01*
G54D15*
X581869Y583419D02*
X581869Y583419D01*
G54D15*
X581169Y585419D02*
X581169Y583919D01*
G54D15*
X581169Y584252D02*
X580969Y584019D01*
X580569Y583919D01*
X580169Y584019D01*
X579969Y584252D01*
X579969Y585419D01*
G54D15*
X579269Y585419D02*
X579269Y583919D01*
G54D15*
X579269Y583419D02*
X579269Y583419D01*
G54D15*
X577869Y585419D02*
X577869Y582752D01*
X576869Y582752D01*
X576469Y582919D01*
X576269Y583252D01*
X576269Y583585D01*
X576469Y583919D01*
X576869Y584085D01*
X576469Y584252D01*
X576269Y584585D01*
X576269Y584919D01*
X576469Y585252D01*
X576869Y585419D01*
X577869Y585419D01*
G54D15*
X577869Y584085D02*
X576869Y584085D01*
G54D15*
X573969Y582752D02*
X575569Y582752D01*
X575569Y583919D01*
X575369Y583919D01*
X574969Y583752D01*
X574569Y583752D01*
X574169Y583919D01*
X573969Y584252D01*
X573969Y584919D01*
X574169Y585252D01*
X574569Y585419D01*
X574969Y585419D01*
X575369Y585252D01*
X575569Y584919D01*
G54D14*
G75*
G01X580332Y597324D02*
G03X589605Y597324I4637J-1243D01*
G01*
G54D14*
X592906Y586556D02*
X592906Y597669D01*
X589731Y597669D01*
G54D14*
X580206Y597669D02*
X577825Y597669D01*
X577825Y586556D01*
G54D14*
G75*
G01X525564Y597324D02*
G03X534836Y597324I4636J-1243D01*
G01*
G54D14*
X538138Y586556D02*
X538138Y597669D01*
X534962Y597669D01*
G54D14*
X525438Y597669D02*
X523056Y597669D01*
X523056Y586556D01*
G54D14*
G75*
G01X535699Y498733D02*
G03X526426Y498733I-4637J1242D01*
G01*
G54D14*
X523125Y509500D02*
X523125Y498388D01*
X526300Y498388D01*
G54D14*
X535825Y498388D02*
X538206Y498388D01*
X538206Y509500D01*
G54D14*
G75*
G01X590455Y498808D02*
G03X581182Y498808I-4636J1242D01*
G01*
G54D14*
X577881Y509575D02*
X577881Y498462D01*
X581056Y498462D01*
G54D14*
X590581Y498462D02*
X592962Y498462D01*
X592962Y509575D01*
G54D14*
X596900Y530225D02*
X582612Y530225D01*
X582612Y534988D01*
X596900Y534988D01*
X596900Y530225D01*
G54D14*
X596900Y538163D02*
X582612Y538163D01*
X582612Y542925D01*
X596900Y542925D01*
X596900Y538163D01*
G54D14*
X596900Y546100D02*
X582612Y546100D01*
X582612Y550863D01*
X596900Y550863D01*
X596900Y546100D01*
G54D14*
X596900Y554038D02*
X582612Y554038D01*
X582612Y558800D01*
X596900Y558800D01*
X596900Y554038D01*
G54D14*
X596900Y561975D02*
X582612Y561975D01*
X582612Y566738D01*
X596900Y566738D01*
X596900Y561975D01*
G54D10*
X866118Y519186D02*
X871452Y519186D01*
G54D10*
X868785Y521408D02*
X868785Y516964D01*
G54D10*
X879229Y524186D02*
X873896Y524186D01*
X873896Y520297D01*
X874562Y520297D01*
X875896Y520852D01*
X877229Y520852D01*
X878562Y520297D01*
X879229Y519186D01*
X879229Y516964D01*
X878562Y515852D01*
X877229Y515297D01*
X875896Y515297D01*
X874562Y515852D01*
X873896Y516964D01*
G54D10*
X881672Y524186D02*
X885006Y515297D01*
X888339Y524186D01*
G54D10*
X869442Y571182D02*
X872108Y571182D01*
X872108Y568404D01*
X871442Y567293D01*
X870108Y566738D01*
X868775Y566738D01*
X867442Y567293D01*
X866775Y568404D01*
X866775Y573960D01*
X867442Y575071D01*
X868775Y575626D01*
X870108Y575626D01*
X871442Y575071D01*
X872108Y573960D01*
G54D10*
X874552Y566738D02*
X874552Y575626D01*
X879885Y566737D01*
X879885Y575626D01*
G54D10*
X882329Y566738D02*
X882329Y575626D01*
X885662Y575626D01*
X886996Y575071D01*
X887662Y573960D01*
X887662Y568404D01*
X886996Y567293D01*
X885662Y566738D01*
X882329Y566738D01*
G54D10*
X922357Y592446D02*
X924357Y591335D01*
X925024Y590223D01*
X925024Y588001D01*
G54D10*
X919690Y588001D02*
X919690Y596890D01*
X923024Y596890D01*
X924357Y596335D01*
X925024Y595223D01*
X925024Y594112D01*
X924357Y593001D01*
X923024Y592446D01*
X919690Y592446D01*
G54D10*
X931467Y588557D02*
X930400Y588001D01*
X929067Y588001D01*
X927734Y588557D01*
X927467Y589668D01*
X927467Y591557D01*
X928134Y592668D01*
X929467Y593001D01*
X930800Y592668D01*
X931467Y591890D01*
X931467Y590779D01*
X927467Y590779D01*
G54D10*
X933911Y588557D02*
X935244Y588001D01*
X936578Y588001D01*
X937911Y588557D01*
X937911Y589668D01*
X937244Y590223D01*
X934578Y590779D01*
X933911Y591335D01*
X933911Y592446D01*
X935244Y593001D01*
X936578Y593001D01*
X937911Y592446D01*
G54D10*
X910568Y496247D02*
X910568Y505136D01*
X913902Y499580D01*
X917235Y505136D01*
X917235Y496247D01*
G54D10*
X919680Y496247D02*
X925013Y496247D01*
G54D10*
X922346Y496247D02*
X922346Y505136D01*
G54D10*
X919680Y505136D02*
X925013Y505136D01*
G54D10*
X927456Y497914D02*
X928123Y496802D01*
X929456Y496247D01*
X930790Y496247D01*
X932123Y496802D01*
X932790Y497914D01*
X932790Y499025D01*
X932123Y500136D01*
X930790Y500691D01*
X929456Y500691D01*
X928123Y501247D01*
X927456Y502358D01*
X927456Y503469D01*
X928123Y504580D01*
X929456Y505136D01*
X930790Y505136D01*
X932123Y504580D01*
X932790Y503469D01*
G54D10*
X940567Y503469D02*
X940567Y497914D01*
X939900Y496802D01*
X938567Y496247D01*
X937234Y496247D01*
X935900Y496802D01*
X935234Y497914D01*
X935234Y503469D01*
X935900Y504580D01*
X937234Y505136D01*
X938567Y505136D01*
X939900Y504580D01*
X940567Y503469D01*
G54D11*
X544512Y642938D02*
X544512Y647382D01*
X546179Y647382D01*
X546846Y647104D01*
X547179Y646549D01*
X547179Y645993D01*
X546846Y645438D01*
X546179Y645160D01*
X544512Y645160D01*
G54D11*
X548402Y642938D02*
X548402Y647382D01*
X550068Y647382D01*
X550735Y647104D01*
X551068Y646549D01*
X551068Y645993D01*
X550735Y645438D01*
X550068Y645160D01*
X550735Y644882D01*
X551068Y644326D01*
X551068Y643771D01*
X550735Y643215D01*
X550068Y642938D01*
X548402Y642938D01*
G54D11*
X548402Y645160D02*
X550068Y645160D01*
G54D11*
X554290Y642938D02*
X554290Y647382D01*
X552290Y644604D01*
X552290Y644049D01*
X554957Y644049D01*
G54D11*
X569912Y642938D02*
X569912Y647382D01*
X571579Y647382D01*
X572246Y647104D01*
X572579Y646549D01*
X572579Y645993D01*
X572246Y645438D01*
X571579Y645160D01*
X569912Y645160D01*
G54D11*
X573802Y642938D02*
X573802Y647382D01*
X575468Y647382D01*
X576135Y647104D01*
X576468Y646549D01*
X576468Y645993D01*
X576135Y645438D01*
X575468Y645160D01*
X576135Y644882D01*
X576468Y644326D01*
X576468Y643771D01*
X576135Y643215D01*
X575468Y642938D01*
X573802Y642938D01*
G54D11*
X573802Y645160D02*
X575468Y645160D01*
G54D11*
X577690Y646549D02*
X578024Y647104D01*
X578690Y647382D01*
X579357Y647382D01*
X580024Y647104D01*
X580357Y646549D01*
X580357Y645993D01*
X580024Y645438D01*
X579357Y645160D01*
X580024Y644882D01*
X580357Y644326D01*
X580357Y643771D01*
X580024Y643215D01*
X579357Y642938D01*
X578690Y642938D01*
X578024Y643215D01*
X577690Y643771D01*
G54D11*
X595312Y642938D02*
X595312Y647382D01*
X596979Y647382D01*
X597646Y647104D01*
X597979Y646549D01*
X597979Y645993D01*
X597646Y645438D01*
X596979Y645160D01*
X595312Y645160D01*
G54D11*
X599202Y642938D02*
X599202Y647382D01*
X600868Y647382D01*
X601535Y647104D01*
X601868Y646549D01*
X601868Y645993D01*
X601535Y645438D01*
X600868Y645160D01*
X601535Y644882D01*
X601868Y644326D01*
X601868Y643771D01*
X601535Y643215D01*
X600868Y642938D01*
X599202Y642938D01*
G54D11*
X599202Y645160D02*
X600868Y645160D01*
G54D11*
X605757Y642938D02*
X603090Y642938D01*
X603090Y643215D01*
X603424Y643771D01*
X605424Y645438D01*
X605757Y645993D01*
X605757Y646549D01*
X605424Y647104D01*
X604757Y647382D01*
X604090Y647382D01*
X603424Y647104D01*
X603090Y646549D01*
G54D11*
X620712Y642938D02*
X620712Y647382D01*
X622379Y647382D01*
X623046Y647104D01*
X623379Y646549D01*
X623379Y645993D01*
X623046Y645438D01*
X622379Y645160D01*
X620712Y645160D01*
G54D11*
X624602Y642938D02*
X624602Y647382D01*
X626268Y647382D01*
X626935Y647104D01*
X627268Y646549D01*
X627268Y645993D01*
X626935Y645438D01*
X626268Y645160D01*
X626935Y644882D01*
X627268Y644326D01*
X627268Y643771D01*
X626935Y643215D01*
X626268Y642938D01*
X624602Y642938D01*
G54D11*
X624602Y645160D02*
X626268Y645160D01*
G54D11*
X628490Y645715D02*
X630157Y647382D01*
X630157Y642938D01*
G54D11*
X646112Y642938D02*
X646112Y647382D01*
X647779Y647382D01*
X648446Y647104D01*
X648779Y646549D01*
X648779Y645993D01*
X648446Y645438D01*
X647779Y645160D01*
X646112Y645160D01*
G54D11*
X650002Y642938D02*
X650002Y647382D01*
X651668Y647382D01*
X652335Y647104D01*
X652668Y646549D01*
X652668Y645993D01*
X652335Y645438D01*
X651668Y645160D01*
X652335Y644882D01*
X652668Y644326D01*
X652668Y643771D01*
X652335Y643215D01*
X651668Y642938D01*
X650002Y642938D01*
G54D11*
X650002Y645160D02*
X651668Y645160D01*
G54D11*
X656557Y646549D02*
X656557Y643771D01*
X656224Y643215D01*
X655557Y642938D01*
X654890Y642938D01*
X654224Y643215D01*
X653890Y643771D01*
X653890Y646549D01*
X654224Y647104D01*
X654890Y647382D01*
X655557Y647382D01*
X656224Y647104D01*
X656557Y646549D01*
G54D10*
X539750Y592138D02*
X539750Y601026D01*
X543083Y601026D01*
X544417Y600471D01*
X545083Y599360D01*
X545083Y593804D01*
X544417Y592693D01*
X543083Y592138D01*
X539750Y592138D01*
G54D10*
X547527Y597693D02*
X550860Y601026D01*
X550860Y592138D01*
G54D10*
X558637Y592138D02*
X553304Y592138D01*
X553304Y592693D01*
X553971Y593804D01*
X557971Y597138D01*
X558637Y598249D01*
X558637Y599360D01*
X557971Y600471D01*
X556637Y601026D01*
X555304Y601026D01*
X553971Y600471D01*
X553304Y599360D01*
G54D10*
X566738Y592138D02*
X566738Y601026D01*
X570071Y601026D01*
X571404Y600471D01*
X572071Y599360D01*
X572071Y593804D01*
X571404Y592693D01*
X570071Y592138D01*
X566738Y592138D01*
G54D10*
X574514Y597693D02*
X577848Y601026D01*
X577848Y592138D01*
G54D10*
X580292Y597693D02*
X583625Y601026D01*
X583625Y592138D01*
G54D10*
X590550Y592138D02*
X590550Y601026D01*
X593883Y601026D01*
X595217Y600471D01*
X595883Y599360D01*
X595883Y593804D01*
X595217Y592693D01*
X593883Y592138D01*
X590550Y592138D01*
G54D10*
X598327Y597693D02*
X601660Y601026D01*
X601660Y592138D01*
G54D10*
X609437Y599360D02*
X609437Y593804D01*
X608771Y592693D01*
X607437Y592138D01*
X606104Y592138D01*
X604771Y592693D01*
X604104Y593804D01*
X604104Y599360D01*
X604771Y600471D01*
X606104Y601026D01*
X607437Y601026D01*
X608771Y600471D01*
X609437Y599360D01*
G54D10*
X619125Y592138D02*
X619125Y601026D01*
X622458Y601026D01*
X623792Y600471D01*
X624458Y599360D01*
X624458Y593804D01*
X623792Y592693D01*
X622458Y592138D01*
X619125Y592138D01*
G54D10*
X626902Y593804D02*
X627569Y592693D01*
X628902Y592138D01*
X630235Y592138D01*
X631569Y592693D01*
X632235Y593804D01*
X632235Y596582D01*
X632235Y597138D01*
X630235Y596026D01*
X628902Y596026D01*
X627569Y596582D01*
X626902Y597693D01*
X626902Y599360D01*
X627569Y600471D01*
X628902Y601026D01*
X630235Y601026D01*
X631569Y600471D01*
X632235Y599360D01*
X632235Y596582D01*
G54D10*
X644525Y592138D02*
X644525Y601026D01*
X647858Y601026D01*
X649192Y600471D01*
X649858Y599360D01*
X649858Y593804D01*
X649192Y592693D01*
X647858Y592138D01*
X644525Y592138D01*
G54D10*
X655635Y596582D02*
X654302Y596582D01*
X652969Y597138D01*
X652302Y598249D01*
X652302Y599360D01*
X652969Y600471D01*
X654302Y601026D01*
X655635Y601026D01*
X656969Y600471D01*
X657635Y599360D01*
X657635Y598249D01*
X656969Y597138D01*
X655635Y596582D01*
X656969Y596026D01*
X657635Y594915D01*
X657635Y593804D01*
X656969Y592693D01*
X655635Y592138D01*
X654302Y592138D01*
X652969Y592693D01*
X652302Y593804D01*
X652302Y594915D01*
X652969Y596026D01*
X654302Y596582D01*
G54D10*
X669925Y592138D02*
X669925Y601026D01*
X673258Y601026D01*
X674592Y600471D01*
X675258Y599360D01*
X675258Y593804D01*
X674592Y592693D01*
X673258Y592138D01*
X669925Y592138D01*
G54D10*
X677702Y601026D02*
X683035Y601026D01*
X682369Y599915D01*
X681035Y598249D01*
X679702Y596026D01*
X679035Y594360D01*
X679035Y592138D01*
G54D10*
X695325Y592138D02*
X695325Y601026D01*
X698658Y601026D01*
X699992Y600471D01*
X700658Y599360D01*
X700658Y593804D01*
X699992Y592693D01*
X698658Y592138D01*
X695325Y592138D01*
G54D10*
X708435Y599360D02*
X707769Y600471D01*
X706435Y601026D01*
X705102Y601026D01*
X703769Y600471D01*
X703102Y599360D01*
X703102Y596582D01*
X703102Y596026D01*
X705102Y597138D01*
X706435Y597138D01*
X707769Y596582D01*
X708435Y595471D01*
X708435Y593804D01*
X707769Y592693D01*
X706435Y592138D01*
X705102Y592138D01*
X703769Y592693D01*
X703102Y593804D01*
X703102Y596582D01*
G54D10*
X720725Y592138D02*
X720725Y601026D01*
X724058Y601026D01*
X725392Y600471D01*
X726058Y599360D01*
X726058Y593804D01*
X725392Y592693D01*
X724058Y592138D01*
X720725Y592138D01*
G54D10*
X733835Y601026D02*
X728502Y601026D01*
X728502Y597138D01*
X729169Y597138D01*
X730502Y597693D01*
X731835Y597693D01*
X733169Y597138D01*
X733835Y596026D01*
X733835Y593804D01*
X733169Y592693D01*
X731835Y592138D01*
X730502Y592138D01*
X729169Y592693D01*
X728502Y593804D01*
G54D10*
X746125Y592138D02*
X746125Y601026D01*
X749458Y601026D01*
X750792Y600471D01*
X751458Y599360D01*
X751458Y593804D01*
X750792Y592693D01*
X749458Y592138D01*
X746125Y592138D01*
G54D10*
X757902Y592138D02*
X757902Y601026D01*
X753902Y595471D01*
X753902Y594360D01*
X759235Y594360D01*
G54D10*
X771525Y592138D02*
X771525Y601026D01*
X774858Y601026D01*
X776192Y600471D01*
X776858Y599360D01*
X776858Y593804D01*
X776192Y592693D01*
X774858Y592138D01*
X771525Y592138D01*
G54D10*
X779302Y599360D02*
X779969Y600471D01*
X781302Y601026D01*
X782635Y601026D01*
X783969Y600471D01*
X784635Y599360D01*
X784635Y598249D01*
X783969Y597138D01*
X782635Y596582D01*
X783969Y596026D01*
X784635Y594915D01*
X784635Y593804D01*
X783969Y592693D01*
X782635Y592138D01*
X781302Y592138D01*
X779969Y592693D01*
X779302Y593804D01*
G54D10*
X796925Y592138D02*
X796925Y601026D01*
X800258Y601026D01*
X801592Y600471D01*
X802258Y599360D01*
X802258Y593804D01*
X801592Y592693D01*
X800258Y592138D01*
X796925Y592138D01*
G54D10*
X810035Y592138D02*
X804702Y592138D01*
X804702Y592693D01*
X805369Y593804D01*
X809369Y597138D01*
X810035Y598249D01*
X810035Y599360D01*
X809369Y600471D01*
X808035Y601026D01*
X806702Y601026D01*
X805369Y600471D01*
X804702Y599360D01*
G54D10*
X854994Y598009D02*
X853882Y596009D01*
X852771Y595342D01*
X850549Y595342D01*
G54D10*
X850549Y600676D02*
X859438Y600676D01*
X859438Y597342D01*
X858882Y596009D01*
X857771Y595342D01*
X856660Y595342D01*
X855549Y596009D01*
X854994Y597342D01*
X854994Y600676D01*
G54D10*
X851104Y588898D02*
X850549Y589965D01*
X850549Y591298D01*
X851104Y592632D01*
X852216Y592898D01*
X854104Y592898D01*
X855216Y592232D01*
X855549Y590898D01*
X855216Y589565D01*
X854438Y588898D01*
X853327Y588898D01*
X853327Y592898D01*
G54D10*
X851104Y586454D02*
X850549Y585121D01*
X850549Y583788D01*
X851104Y582454D01*
X852216Y582454D01*
X852771Y583121D01*
X853327Y585788D01*
X853882Y586454D01*
X854994Y586454D01*
X855549Y585121D01*
X855549Y583788D01*
X854994Y582454D01*
G54D10*
X851104Y576010D02*
X850549Y577077D01*
X850549Y578410D01*
X851104Y579744D01*
X852216Y580010D01*
X854104Y580010D01*
X855216Y579344D01*
X855549Y578010D01*
X855216Y576677D01*
X854438Y576010D01*
X853327Y576010D01*
X853327Y580010D01*
G54D10*
X859438Y572233D02*
X851104Y572233D01*
X850549Y571566D01*
X850771Y570900D01*
G54D10*
X855549Y573566D02*
X855549Y570900D01*
G54D10*
X820229Y596582D02*
X822896Y596582D01*
X822896Y593804D01*
X822229Y592693D01*
X820896Y592138D01*
X819562Y592138D01*
X818229Y592693D01*
X817562Y593804D01*
X817562Y599360D01*
X818229Y600471D01*
X819562Y601026D01*
X820896Y601026D01*
X822229Y600471D01*
X822896Y599360D01*
G54D10*
X825340Y592138D02*
X825340Y601026D01*
X830673Y592137D01*
X830673Y601026D01*
G54D10*
X833116Y592138D02*
X833116Y601026D01*
X836450Y601026D01*
X837783Y600471D01*
X838450Y599360D01*
X838450Y593804D01*
X837783Y592693D01*
X836450Y592138D01*
X833116Y592138D01*
G54D10*
X870372Y597529D02*
X872372Y596418D01*
X873039Y595307D01*
X873039Y593085D01*
G54D10*
X867706Y593085D02*
X867706Y601974D01*
X871039Y601974D01*
X872372Y601418D01*
X873039Y600307D01*
X873039Y599196D01*
X872372Y598085D01*
X871039Y597529D01*
X867706Y597529D01*
G54D10*
X875483Y601974D02*
X882149Y593085D01*
G54D10*
X875483Y593085D02*
X882149Y601974D01*
G54D10*
X884594Y593085D02*
X889927Y593085D01*
G54D10*
X887260Y593085D02*
X887260Y601974D01*
G54D10*
X884594Y601974D02*
X889927Y601974D01*
G54D10*
X897493Y592543D02*
X897493Y601432D01*
G54D10*
X894826Y601432D02*
X900160Y601432D01*
G54D10*
X902603Y601432D02*
X909270Y592543D01*
G54D10*
X902603Y592543D02*
X909270Y601432D01*
G54D10*
X917048Y599766D02*
X917048Y594210D01*
X916381Y593099D01*
X915048Y592543D01*
X913714Y592543D01*
X912381Y593099D01*
X911714Y594210D01*
X911714Y599766D01*
X912381Y600877D01*
X913714Y601432D01*
X915048Y601432D01*
X916381Y600877D01*
X917048Y599766D01*
G54D10*
X539750Y493712D02*
X539750Y502601D01*
X543083Y502601D01*
X544417Y502046D01*
X545083Y500935D01*
X545083Y495379D01*
X544417Y494268D01*
X543083Y493712D01*
X539750Y493712D01*
G54D10*
X547527Y499268D02*
X550860Y502601D01*
X550860Y493712D01*
G54D10*
X553304Y500935D02*
X553971Y502046D01*
X555304Y502601D01*
X556637Y502601D01*
X557971Y502046D01*
X558637Y500935D01*
X558637Y499824D01*
X557971Y498712D01*
X556637Y498157D01*
X557971Y497601D01*
X558637Y496490D01*
X558637Y495379D01*
X557971Y494268D01*
X556637Y493712D01*
X555304Y493712D01*
X553971Y494268D01*
X553304Y495379D01*
G54D10*
X565150Y500935D02*
X565817Y502046D01*
X567150Y502601D01*
X568483Y502601D01*
X569817Y502046D01*
X570483Y500935D01*
X570483Y499824D01*
X569817Y498712D01*
X568483Y498157D01*
X569817Y497601D01*
X570483Y496490D01*
X570483Y495379D01*
X569817Y494268D01*
X568483Y493712D01*
X567150Y493712D01*
X565817Y494268D01*
X565150Y495379D01*
G54D10*
X572927Y498712D02*
X575594Y493712D01*
X578260Y498712D01*
G54D10*
X580704Y500935D02*
X581371Y502046D01*
X582704Y502601D01*
X584037Y502601D01*
X585371Y502046D01*
X586037Y500935D01*
X586037Y499824D01*
X585371Y498712D01*
X584037Y498157D01*
X585371Y497601D01*
X586037Y496490D01*
X586037Y495379D01*
X585371Y494268D01*
X584037Y493712D01*
X582704Y493712D01*
X581371Y494268D01*
X580704Y495379D01*
G54D10*
X598136Y522888D02*
X607025Y519555D01*
X598136Y516221D01*
G54D10*
X601470Y521555D02*
X601470Y517555D01*
G54D10*
X598136Y513777D02*
X607025Y513777D01*
X607025Y510444D01*
X606470Y509110D01*
X605359Y508444D01*
X604248Y508444D01*
X603136Y509110D01*
X602581Y510444D01*
X602581Y513777D01*
G54D10*
X598136Y501333D02*
X598136Y506000D01*
X607025Y506000D01*
X607025Y501333D01*
G54D10*
X602581Y506000D02*
X602581Y501333D01*
G54D10*
X598136Y498889D02*
X607025Y498889D01*
X607025Y494222D01*
G54D10*
X602581Y498889D02*
X602581Y494222D01*
G54D17*
X523875Y852538D02*
X523875Y662038D01*
G54D17*
X1031875Y852538D02*
X1031875Y662038D01*
G54D17*
X777875Y852538D02*
X1031875Y852538D01*
G54D17*
X771475Y662038D02*
X1031875Y662038D01*
G54D17*
X523875Y662038D02*
X777875Y662038D01*
G54D17*
X523875Y852538D02*
X777875Y852538D01*
G54D18*
X719775Y704938D02*
X712775Y704938D01*
X712775Y718238D01*
X719775Y718238D01*
G54D18*
X712775Y711638D02*
X719775Y711638D01*
G54D18*
X738175Y704938D02*
X738175Y718238D01*
X743175Y718238D01*
X745175Y717438D01*
X746175Y715738D01*
X746175Y707438D01*
X745175Y705738D01*
X743175Y704938D01*
X738175Y704938D01*
G54D18*
X763575Y704938D02*
X763575Y718238D01*
G54D18*
X771575Y704938D02*
X771575Y718238D01*
G54D18*
X763575Y711638D02*
X771575Y711638D01*
G54D18*
X796975Y707438D02*
X795975Y705738D01*
X793975Y704938D01*
X791975Y704938D01*
X789975Y705738D01*
X788975Y707438D01*
X788975Y715738D01*
X789975Y717438D01*
X791975Y718238D01*
X793975Y718238D01*
X795975Y717438D01*
X796975Y715738D01*
G54D18*
X818375Y711638D02*
X822375Y711638D01*
X822375Y707438D01*
X821375Y705738D01*
X819375Y704938D01*
X817375Y704938D01*
X815375Y705738D01*
X814375Y707438D01*
X814375Y715738D01*
X815375Y717438D01*
X817375Y718238D01*
X819375Y718238D01*
X821375Y717438D01*
X822375Y715738D01*
G54D18*
X833475Y704938D02*
X838475Y718238D01*
X843475Y704938D01*
G54D18*
X835475Y709938D02*
X841475Y709938D01*
G54D18*
X847175Y715738D02*
X848175Y717438D01*
X850175Y718238D01*
X852175Y718238D01*
X854175Y717438D01*
X855175Y715738D01*
X855175Y714138D01*
X854175Y712438D01*
X852175Y711638D01*
X854175Y710738D01*
X855175Y709138D01*
X855175Y707438D01*
X854175Y705738D01*
X852175Y704938D01*
X850175Y704938D01*
X848175Y705738D01*
X847175Y707438D01*
G54D18*
X839775Y793738D02*
X839775Y807038D01*
X844775Y807038D01*
X846775Y806238D01*
X847775Y804538D01*
X847775Y802938D01*
X846775Y801238D01*
X844775Y800438D01*
X846775Y799538D01*
X847775Y797938D01*
X847775Y796238D01*
X846775Y794538D01*
X844775Y793738D01*
X839775Y793738D01*
G54D18*
X839775Y800438D02*
X844775Y800438D01*
G54D18*
X808075Y793738D02*
X813075Y807038D01*
X818075Y793738D01*
G54D18*
X810075Y798738D02*
X816075Y798738D01*
G54D18*
X829775Y793738D02*
X821775Y793738D01*
X821775Y794538D01*
X822775Y796238D01*
X828775Y801238D01*
X829775Y802938D01*
X829775Y804538D01*
X828775Y806238D01*
X826775Y807038D01*
X824775Y807038D01*
X822775Y806238D01*
X821775Y804538D01*
G54D18*
X782675Y793738D02*
X787675Y807038D01*
X792675Y793738D01*
G54D18*
X784675Y798738D02*
X790675Y798738D01*
G54D18*
X796375Y802038D02*
X801375Y807038D01*
X801375Y793738D01*
G54D18*
X763575Y793738D02*
X763575Y807038D01*
X770575Y807038D01*
G54D18*
X763575Y800438D02*
X770575Y800438D01*
G54D18*
X738175Y793738D02*
X743175Y807038D01*
X748175Y793738D01*
G54D18*
X740175Y798738D02*
X746175Y798738D01*
G54D18*
X706475Y793738D02*
X711475Y807038D01*
X716475Y793738D01*
G54D18*
X708475Y798738D02*
X714475Y798738D01*
G54D18*
X728175Y804538D02*
X728175Y796238D01*
X727175Y794538D01*
X725175Y793738D01*
X723175Y793738D01*
X721175Y794538D01*
X720175Y796238D01*
X720175Y804538D01*
X721175Y806238D01*
X723175Y807038D01*
X725175Y807038D01*
X727175Y806238D01*
X728175Y804538D01*
G54D19*
X1021900Y651413D02*
X971100Y651413D01*
X971100Y549813D01*
X1021900Y549813D01*
X1021900Y651413D01*
G54D19*
X1009200Y651413D02*
X983800Y651413D01*
X983800Y638713D01*
X1009200Y638713D01*
X1009200Y651413D01*
G54D17*
G75*
G01X969912Y530759D02*
G03X969912Y530759I13500J0D01*
G01*
G54D12*
X970712Y530759D02*
X958012Y530759D01*
X983412Y530759D02*
G54D20*
D03*
X958012Y530759D02*
G54D20*
D03*
G54D21*
X987778Y633381D02*
X1005555Y633381D01*
X987778Y622714D01*
X1005555Y622714D01*
G54D21*
X987778Y607159D02*
X987778Y616492D01*
X1005555Y616492D01*
X1005555Y607159D01*
G54D21*
X996666Y616492D02*
X996666Y607159D01*
G54D21*
X1005555Y590270D02*
X1005555Y600937D01*
X997778Y600937D01*
X997778Y599604D01*
X998889Y596937D01*
X998889Y594270D01*
X997778Y591604D01*
X995555Y590270D01*
X991111Y590270D01*
X988889Y591604D01*
X987778Y594270D01*
X987778Y596937D01*
X988889Y599604D01*
X991111Y600937D01*
G54D21*
X1005555Y573381D02*
X1005555Y584048D01*
X997778Y584048D01*
X997778Y582715D01*
X998889Y580048D01*
X998889Y577381D01*
X997778Y574715D01*
X995555Y573381D01*
X991111Y573381D01*
X988889Y574715D01*
X987778Y577381D01*
X987778Y580048D01*
X988889Y582715D01*
X991111Y584048D01*
G54D21*
X1005555Y556492D02*
X1005555Y567159D01*
X997778Y567159D01*
X997778Y565826D01*
X998889Y563159D01*
X998889Y560492D01*
X997778Y557826D01*
X995555Y556492D01*
X991111Y556492D01*
X988889Y557826D01*
X987778Y560492D01*
X987778Y563159D01*
X988889Y565826D01*
X991111Y567159D01*
G54D17*
G75*
G01X1021664Y518160D02*
G03X1021664Y518160I0J13500D01*
G01*
G54D12*
X1021664Y518960D02*
X1021664Y506260D01*
X1021664Y531660D02*
G54D20*
D03*
X1021664Y506260D02*
G54D20*
D03*
G54D19*
X791200Y908050D02*
X783600Y908050D01*
G54D19*
X787400Y911850D02*
X787400Y904250D01*
G54D19*
G75*
G01X809744Y920750D02*
G03X809744Y920750I-39850J0D01*
G01*
G54D13*
X765000Y936625D02*
X765000Y904875D01*
G54D13*
X768175Y936625D02*
X768175Y904875D01*
X774525Y904875D01*
X774525Y936625D01*
X768175Y936625D01*
G54D13*
X787225Y920750D02*
X774525Y920750D01*
G54D13*
X765000Y920750D02*
X752300Y920750D01*
G54D12*
X972725Y495325D02*
X972725Y463525D01*
X1042625Y463525D01*
X1042625Y495325D01*
X972725Y495325D01*
G54D12*
X1004475Y489025D02*
X1004475Y469825D01*
G54D12*
X1010875Y489025D02*
X1010875Y469825D01*
G54D12*
X1010875Y479425D02*
X1031875Y479425D01*
G54D12*
X1004475Y479425D02*
X982275Y479425D01*
G54D12*
X823913Y574675D02*
X823913Y568275D01*
G54D12*
X823913Y530275D02*
X823913Y523875D01*
G54D12*
X817613Y561975D02*
X830213Y561975D01*
X830213Y536575D01*
X817613Y536575D01*
X817613Y561975D01*
G54D12*
X823913Y568275D02*
X823913Y561975D01*
X823913Y574675D02*
G54D20*
D03*
X823913Y523875D02*
G54D20*
D03*
G54D12*
X823913Y536575D02*
X823913Y530275D01*
G54D12*
X631792Y939695D02*
X577816Y939695D01*
G54D12*
X631792Y904770D02*
X577816Y904770D01*
G54D12*
X574642Y907945D02*
X574642Y936520D01*
G54D12*
X634966Y936520D02*
X634966Y907945D01*
G54D12*
X619092Y911120D02*
X590516Y911120D01*
G54D12*
X587342Y914295D02*
X587342Y930170D01*
G54D12*
X590516Y933345D02*
X619092Y933345D01*
G54D12*
X622266Y930170D02*
X622266Y914295D01*
G54D12*
X619092Y917470D02*
X619092Y926995D01*
G54D12*
X615916Y930170D02*
X593692Y930170D01*
G54D12*
X590516Y926995D02*
X590516Y917470D01*
G54D12*
X593692Y914295D02*
X615916Y914295D01*
G54D12*
G75*
G01X634992Y936520D02*
G03X631792Y939720I-3200J0D01*
G01*
G54D12*
G75*
G01X622292Y930170D02*
G03X619092Y933370I-3200J0D01*
G01*
G54D12*
G75*
G01X581016Y930170D02*
G03X577816Y933370I-3200J0D01*
G01*
G54D12*
G75*
G01X619116Y926995D02*
G03X615916Y930195I-3200J0D01*
G01*
G54D12*
G75*
G01X631792Y904770D02*
G03X634992Y907970I0J3200D01*
G01*
G54D12*
G75*
G01X619092Y911120D02*
G03X622292Y914320I0J3200D01*
G01*
G54D12*
G75*
G01X577816Y911120D02*
G03X581016Y914320I0J3200D01*
G01*
G54D12*
G75*
G01X615916Y914295D02*
G03X619116Y917495I0J3200D01*
G01*
G54D12*
G75*
G01X574642Y907970D02*
G03X577842Y904770I3200J0D01*
G01*
G54D12*
G75*
G01X587342Y914320D02*
G03X590542Y911120I3200J0D01*
G01*
G54D12*
G75*
G01X590516Y917495D02*
G03X593716Y914295I3200J0D01*
G01*
G54D12*
G75*
G01X628616Y914320D02*
G03X631816Y911120I3200J0D01*
G01*
G54D12*
G75*
G01X577842Y939920D02*
G03X574642Y936720I0J-3200D01*
G01*
G54D12*
G75*
G01X631816Y933570D02*
G03X628616Y930370I0J-3200D01*
G01*
G54D12*
G75*
G01X590542Y933570D02*
G03X587342Y930370I0J-3200D01*
G01*
G54D12*
G75*
G01X593716Y930395D02*
G03X590516Y927195I0J-3200D01*
G01*
G54D12*
X628616Y930170D02*
X628616Y914295D01*
G54D12*
X631792Y911120D02*
X634966Y911120D01*
G54D12*
X631792Y933345D02*
X634966Y933345D01*
G54D12*
X577816Y933345D02*
X574642Y933345D01*
G54D12*
X577816Y911120D02*
X574642Y911120D01*
G54D12*
X580992Y914295D02*
X580992Y930170D01*
G54D12*
X574642Y926995D02*
X571466Y926995D01*
X571466Y917470D01*
X574642Y917470D01*
G54D12*
X634966Y917470D02*
X638142Y917470D01*
X638142Y926995D01*
X634966Y926995D01*
G54D22*
X1029779Y512444D02*
X1031779Y511333D01*
X1032446Y510222D01*
X1032446Y508000D01*
G54D22*
X1027112Y508000D02*
X1027112Y516889D01*
X1030446Y516889D01*
X1031779Y516333D01*
X1032446Y515222D01*
X1032446Y514111D01*
X1031779Y513000D01*
X1030446Y512444D01*
X1027112Y512444D01*
G54D22*
X1035556Y513556D02*
X1038890Y516889D01*
X1038890Y508000D01*
G54D22*
X975804Y510857D02*
X977804Y509746D01*
X978471Y508635D01*
X978471Y506412D01*
G54D22*
X973138Y506412D02*
X973138Y515301D01*
X976471Y515301D01*
X977804Y514746D01*
X978471Y513635D01*
X978471Y512524D01*
X977804Y511412D01*
X976471Y510857D01*
X973138Y510857D01*
G54D22*
X986915Y506412D02*
X981582Y506412D01*
X981582Y506968D01*
X982248Y508079D01*
X986248Y511412D01*
X986915Y512524D01*
X986915Y513635D01*
X986248Y514746D01*
X984915Y515301D01*
X983582Y515301D01*
X982248Y514746D01*
X981582Y513635D01*
G54D23*
X600864Y755377D02*
X613064Y748599D01*
X617130Y741821D01*
X617130Y728266D01*
G54D23*
X584597Y728266D02*
X584597Y782488D01*
X604930Y782488D01*
X613064Y779099D01*
X617130Y772321D01*
X617130Y765543D01*
X613064Y758766D01*
X604930Y755377D01*
X584597Y755377D01*
G54D23*
X936619Y756567D02*
X924419Y749790D01*
X920353Y743012D01*
X920353Y729456D01*
G54D23*
X952886Y729456D02*
X952886Y783678D01*
X932553Y783678D01*
X924419Y780290D01*
X920353Y773512D01*
X920353Y766734D01*
X924419Y759956D01*
X932553Y756567D01*
X952886Y756567D01*
M02*
