; Drill file
; Format: 2.4 (00.0000)
M48
INCH
T01C0.0236
T02C0.0276
T03C0.0283
T04C0.0315
T05C0.0709
%
G05
G90
T01
X028120Y027310
X029130Y027310
X030130Y027310
X031120Y027310
X030130Y032310
X029130Y032310
X033120Y032310
X038670Y018870
X040620Y018870
T02
X032120Y027310
X033120Y027310
X037730Y025150
X037730Y024150
X037730Y023150
X037730Y022150
X040730Y022150
X040730Y023150
X040730Y024150
X040730Y025150
X032120Y032310
X031120Y032310
X028120Y032310
T03
X029620Y036250
X031000Y036250
T04
X021630Y018560
X022630Y018560
X023620Y018560
X024620Y018560
X025620Y018560
X026630Y018560
X027630Y018560
X028620Y018560
X029620Y018560
X030620Y018560
X031630Y018560
X032630Y018560
X033620Y018560
X034620Y018560
X035620Y018560
X035620Y020560
X035620Y021560
X035620Y022560
X036630Y022560
X036630Y021560
X036630Y020560
X037720Y020900
X038720Y020900
X040220Y020930
X040220Y019930
X035620Y024560
X034620Y024560
X033620Y024560
X032630Y024560
X031630Y024560
X030620Y024560
X029620Y024560
X028620Y024560
X027630Y024560
X026630Y024560
X025620Y024560
X024620Y024560
X023620Y024560
X022630Y024560
X021630Y024560
X032440Y022630
X032440Y020620
X025190Y036310
X022440Y036310
T05
X020620Y018560
X020620Y024560
X036630Y024560
X036630Y018560
M30
